<?xml version="1.0" encoding="UTF-8"?>
<svg id="Layer_2" data-name="Layer 2" xmlns="http://www.w3.org/2000/svg" viewBox="0 0 310.79 213.05">
  <g id="Layer_2-2" data-name="Layer 2">
    <path d="M64.07,70.94c2.76-8.68,13.18-37.69,43-56,27.7-17.01,67.34-21.84,100-2,33.09,20.1,41.44,54.86,43,62,3.25.46,38.44,6.1,54,38,1.72,3.52,12.19,25.95,3,51-7.74,21.12-24.86,31.59-34,37-27.85,16.49-47.96,11.56-120,11-78.14-.61-99.68,4.84-123-14-5.14-4.15-22.15-17.89-28-42-1.8-7.43-3.99-21.79,1-37,12.49-38.08,58.83-47.59,61-48Z" fill="#96a887"/>
  </g>
</svg>